<mxfile host="app.diagrams.net" modified="2023-02-25T02:51:15.977Z" agent="5.0 (Windows NT 10.0; Win64; x64) AppleWebKit/537.36 (KHTML, like Gecko) Chrome/110.0.0.0 Safari/537.36" etag="NbpEIyaoSzGbYnUwSMHK" version="20.8.18" type="github">
  <diagram id="C5RBs43oDa-KdzZeNtuy" name="Page-1">
    <mxGraphModel dx="724" dy="406" grid="1" gridSize="10" guides="1" tooltips="1" connect="1" arrows="1" fold="1" page="1" pageScale="1" pageWidth="827" pageHeight="1169" math="0" shadow="0">
      <root>
        <mxCell id="WIyWlLk6GJQsqaUBKTNV-0" />
        <mxCell id="WIyWlLk6GJQsqaUBKTNV-1" parent="WIyWlLk6GJQsqaUBKTNV-0" />
        <mxCell id="q3dlRAsg1Q7bvN006I3k-25" value="" style="edgeStyle=orthogonalEdgeStyle;rounded=0;orthogonalLoop=1;jettySize=auto;html=1;" edge="1" parent="WIyWlLk6GJQsqaUBKTNV-1" source="q3dlRAsg1Q7bvN006I3k-23" target="q3dlRAsg1Q7bvN006I3k-24">
          <mxGeometry relative="1" as="geometry" />
        </mxCell>
        <mxCell id="q3dlRAsg1Q7bvN006I3k-23" value="Pick an answer" style="rounded=0;whiteSpace=wrap;html=1;" vertex="1" parent="WIyWlLk6GJQsqaUBKTNV-1">
          <mxGeometry x="55" y="150" width="100" height="30" as="geometry" />
        </mxCell>
        <mxCell id="q3dlRAsg1Q7bvN006I3k-27" value="" style="edgeStyle=orthogonalEdgeStyle;rounded=0;orthogonalLoop=1;jettySize=auto;html=1;" edge="1" parent="WIyWlLk6GJQsqaUBKTNV-1" source="q3dlRAsg1Q7bvN006I3k-24" target="q3dlRAsg1Q7bvN006I3k-26">
          <mxGeometry relative="1" as="geometry" />
        </mxCell>
        <mxCell id="q3dlRAsg1Q7bvN006I3k-55" style="edgeStyle=orthogonalEdgeStyle;rounded=0;orthogonalLoop=1;jettySize=auto;html=1;" edge="1" parent="WIyWlLk6GJQsqaUBKTNV-1" source="q3dlRAsg1Q7bvN006I3k-24" target="q3dlRAsg1Q7bvN006I3k-54">
          <mxGeometry relative="1" as="geometry" />
        </mxCell>
        <mxCell id="q3dlRAsg1Q7bvN006I3k-24" value="Time expired?" style="rhombus;whiteSpace=wrap;html=1;rounded=0;" vertex="1" parent="WIyWlLk6GJQsqaUBKTNV-1">
          <mxGeometry x="55" y="205" width="100" height="30" as="geometry" />
        </mxCell>
        <mxCell id="q3dlRAsg1Q7bvN006I3k-42" value="" style="edgeStyle=orthogonalEdgeStyle;rounded=0;orthogonalLoop=1;jettySize=auto;html=1;" edge="1" parent="WIyWlLk6GJQsqaUBKTNV-1" source="q3dlRAsg1Q7bvN006I3k-26" target="q3dlRAsg1Q7bvN006I3k-41">
          <mxGeometry relative="1" as="geometry" />
        </mxCell>
        <mxCell id="q3dlRAsg1Q7bvN006I3k-47" value="" style="edgeStyle=orthogonalEdgeStyle;rounded=0;orthogonalLoop=1;jettySize=auto;html=1;" edge="1" parent="WIyWlLk6GJQsqaUBKTNV-1" source="q3dlRAsg1Q7bvN006I3k-26" target="q3dlRAsg1Q7bvN006I3k-46">
          <mxGeometry relative="1" as="geometry" />
        </mxCell>
        <mxCell id="q3dlRAsg1Q7bvN006I3k-26" value="Correct answer picked?" style="rhombus;whiteSpace=wrap;html=1;rounded=0;" vertex="1" parent="WIyWlLk6GJQsqaUBKTNV-1">
          <mxGeometry x="30" y="260" width="150" height="30" as="geometry" />
        </mxCell>
        <mxCell id="q3dlRAsg1Q7bvN006I3k-29" value="No" style="text;html=1;strokeColor=none;fillColor=none;align=center;verticalAlign=middle;whiteSpace=wrap;rounded=0;" vertex="1" parent="WIyWlLk6GJQsqaUBKTNV-1">
          <mxGeometry x="95" y="235" width="60" height="30" as="geometry" />
        </mxCell>
        <mxCell id="q3dlRAsg1Q7bvN006I3k-31" value="&lt;h1&gt;Pizza Trivia Quiz Flow Chart&lt;/h1&gt;&lt;p&gt;Just a simple flow chart!&lt;/p&gt;" style="text;html=1;strokeColor=none;fillColor=none;spacing=5;spacingTop=-20;whiteSpace=wrap;overflow=hidden;rounded=0;" vertex="1" parent="WIyWlLk6GJQsqaUBKTNV-1">
          <mxGeometry x="10" y="20" width="360" height="70" as="geometry" />
        </mxCell>
        <mxCell id="q3dlRAsg1Q7bvN006I3k-38" style="edgeStyle=orthogonalEdgeStyle;rounded=0;orthogonalLoop=1;jettySize=auto;html=1;" edge="1" parent="WIyWlLk6GJQsqaUBKTNV-1" source="q3dlRAsg1Q7bvN006I3k-32" target="q3dlRAsg1Q7bvN006I3k-23">
          <mxGeometry relative="1" as="geometry" />
        </mxCell>
        <mxCell id="q3dlRAsg1Q7bvN006I3k-32" value="Launch" style="rounded=1;whiteSpace=wrap;html=1;" vertex="1" parent="WIyWlLk6GJQsqaUBKTNV-1">
          <mxGeometry x="57.5" y="100" width="95" height="20" as="geometry" />
        </mxCell>
        <mxCell id="q3dlRAsg1Q7bvN006I3k-52" style="edgeStyle=orthogonalEdgeStyle;rounded=0;orthogonalLoop=1;jettySize=auto;html=1;entryX=0.5;entryY=1;entryDx=0;entryDy=0;" edge="1" parent="WIyWlLk6GJQsqaUBKTNV-1" source="q3dlRAsg1Q7bvN006I3k-41" target="q3dlRAsg1Q7bvN006I3k-48">
          <mxGeometry relative="1" as="geometry" />
        </mxCell>
        <mxCell id="q3dlRAsg1Q7bvN006I3k-41" value="Increase score" style="whiteSpace=wrap;html=1;rounded=0;" vertex="1" parent="WIyWlLk6GJQsqaUBKTNV-1">
          <mxGeometry x="80" y="320" width="50" height="40" as="geometry" />
        </mxCell>
        <mxCell id="q3dlRAsg1Q7bvN006I3k-49" style="edgeStyle=orthogonalEdgeStyle;rounded=0;orthogonalLoop=1;jettySize=auto;html=1;" edge="1" parent="WIyWlLk6GJQsqaUBKTNV-1" source="q3dlRAsg1Q7bvN006I3k-46" target="q3dlRAsg1Q7bvN006I3k-48">
          <mxGeometry relative="1" as="geometry" />
        </mxCell>
        <mxCell id="q3dlRAsg1Q7bvN006I3k-46" value="Deduct score" style="whiteSpace=wrap;html=1;rounded=0;" vertex="1" parent="WIyWlLk6GJQsqaUBKTNV-1">
          <mxGeometry x="210" y="258.75" width="80" height="32.5" as="geometry" />
        </mxCell>
        <mxCell id="q3dlRAsg1Q7bvN006I3k-51" value="" style="edgeStyle=orthogonalEdgeStyle;rounded=0;orthogonalLoop=1;jettySize=auto;html=1;" edge="1" parent="WIyWlLk6GJQsqaUBKTNV-1" source="q3dlRAsg1Q7bvN006I3k-48" target="q3dlRAsg1Q7bvN006I3k-50">
          <mxGeometry relative="1" as="geometry" />
        </mxCell>
        <mxCell id="q3dlRAsg1Q7bvN006I3k-53" style="edgeStyle=orthogonalEdgeStyle;rounded=0;orthogonalLoop=1;jettySize=auto;html=1;exitX=0.5;exitY=0;exitDx=0;exitDy=0;entryX=1;entryY=0.5;entryDx=0;entryDy=0;" edge="1" parent="WIyWlLk6GJQsqaUBKTNV-1" source="q3dlRAsg1Q7bvN006I3k-48" target="q3dlRAsg1Q7bvN006I3k-23">
          <mxGeometry relative="1" as="geometry" />
        </mxCell>
        <mxCell id="q3dlRAsg1Q7bvN006I3k-48" value="Reach max. question count?" style="rhombus;whiteSpace=wrap;html=1;rounded=0;" vertex="1" parent="WIyWlLk6GJQsqaUBKTNV-1">
          <mxGeometry x="330" y="222.5" width="110" height="105" as="geometry" />
        </mxCell>
        <mxCell id="q3dlRAsg1Q7bvN006I3k-50" value="Game finish = show final score" style="whiteSpace=wrap;html=1;rounded=0;" vertex="1" parent="WIyWlLk6GJQsqaUBKTNV-1">
          <mxGeometry x="460" y="245" width="120" height="60" as="geometry" />
        </mxCell>
        <mxCell id="q3dlRAsg1Q7bvN006I3k-54" value="Next question" style="whiteSpace=wrap;html=1;rounded=0;" vertex="1" parent="WIyWlLk6GJQsqaUBKTNV-1">
          <mxGeometry x="190" y="205" width="130" height="30" as="geometry" />
        </mxCell>
        <mxCell id="q3dlRAsg1Q7bvN006I3k-56" value="Yes" style="text;html=1;strokeColor=none;fillColor=none;align=center;verticalAlign=middle;whiteSpace=wrap;rounded=0;" vertex="1" parent="WIyWlLk6GJQsqaUBKTNV-1">
          <mxGeometry x="140" y="192.5" width="60" height="30" as="geometry" />
        </mxCell>
        <mxCell id="q3dlRAsg1Q7bvN006I3k-57" value="No" style="text;html=1;strokeColor=none;fillColor=none;align=center;verticalAlign=middle;whiteSpace=wrap;rounded=0;" vertex="1" parent="WIyWlLk6GJQsqaUBKTNV-1">
          <mxGeometry x="160" y="275" width="60" height="30" as="geometry" />
        </mxCell>
        <mxCell id="q3dlRAsg1Q7bvN006I3k-58" value="Yes" style="text;html=1;strokeColor=none;fillColor=none;align=center;verticalAlign=middle;whiteSpace=wrap;rounded=0;" vertex="1" parent="WIyWlLk6GJQsqaUBKTNV-1">
          <mxGeometry x="92.5" y="290" width="60" height="30" as="geometry" />
        </mxCell>
        <mxCell id="q3dlRAsg1Q7bvN006I3k-59" value="Yes" style="text;html=1;strokeColor=none;fillColor=none;align=center;verticalAlign=middle;whiteSpace=wrap;rounded=0;" vertex="1" parent="WIyWlLk6GJQsqaUBKTNV-1">
          <mxGeometry x="414" y="275" width="60" height="30" as="geometry" />
        </mxCell>
        <mxCell id="q3dlRAsg1Q7bvN006I3k-60" value="No" style="text;html=1;strokeColor=none;fillColor=none;align=center;verticalAlign=middle;whiteSpace=wrap;rounded=0;" vertex="1" parent="WIyWlLk6GJQsqaUBKTNV-1">
          <mxGeometry x="370" y="192.5" width="60" height="30" as="geometry" />
        </mxCell>
      </root>
    </mxGraphModel>
  </diagram>
</mxfile>
